<svg xmlns="http://www.w3.org/2000/svg" width="48" height="48" viewBox="0 0 48 48" shape-rendering="crispEdges"><rect width="48" height="48" fill="#e8cd8e"/><rect x="22" y="39" width="2" height="2" fill="#bb9a5e" opacity="0.18"/><rect x="39" y="41" width="1" height="1" fill="#bb9a5e" opacity="0.18"/><rect x="42" y="35" width="1" height="1" fill="#bb9a5e" opacity="0.19"/><rect x="27" y="8" width="2" height="2" fill="#bb9a5e" opacity="0.25"/><rect x="45" y="37" width="1" height="1" fill="#bb9a5e" opacity="0.14"/><rect x="40" y="37" width="1" height="1" fill="#bb9a5e" opacity="0.26"/><rect x="3" y="21" width="1" height="1" fill="#bb9a5e" opacity="0.17"/><rect x="26" y="0" width="2" height="2" fill="#bb9a5e" opacity="0.17"/><rect x="19" y="12" width="1" height="1" fill="#bb9a5e" opacity="0.17"/><rect x="34" y="6" width="1" height="1" fill="#bb9a5e" opacity="0.12"/><rect x="22" y="22" width="1" height="1" fill="#bb9a5e" opacity="0.24"/><rect x="22" y="16" width="1" height="1" fill="#bb9a5e" opacity="0.16"/><rect x="0" y="21" width="1" height="1" fill="#bb9a5e" opacity="0.13"/><rect x="22" y="9" width="2" height="2" fill="#bb9a5e" opacity="0.26"/><rect x="23" y="5" width="2" height="2" fill="#bb9a5e" opacity="0.20"/><rect x="5" y="27" width="1" height="1" fill="#bb9a5e" opacity="0.21"/><rect x="10" y="9" width="1" height="1" fill="#bb9a5e" opacity="0.24"/><rect x="14" y="32" width="2" height="2" fill="#bb9a5e" opacity="0.19"/><rect x="26" y="16" width="2" height="2" fill="#bb9a5e" opacity="0.13"/><rect x="20" y="33" width="2" height="2" fill="#bb9a5e" opacity="0.15"/><rect x="41" y="14" width="2" height="2" fill="#bb9a5e" opacity="0.16"/><rect x="44" y="15" width="1" height="1" fill="#bb9a5e" opacity="0.21"/><rect x="0" y="28" width="1" height="1" fill="#bb9a5e" opacity="0.25"/><rect x="39" y="43" width="1" height="1" fill="#bb9a5e" opacity="0.25"/><rect x="35" y="23" width="1" height="1" fill="#bb9a5e" opacity="0.20"/><rect x="3" y="26" width="1" height="1" fill="#bb9a5e" opacity="0.17"/><rect x="30" y="13" width="1" height="1" fill="#bb9a5e" opacity="0.16"/><rect x="38" y="42" width="2" height="2" fill="#bb9a5e" opacity="0.13"/><rect x="44" y="1" width="2" height="2" fill="#bb9a5e" opacity="0.20"/><rect x="43" y="15" width="2" height="2" fill="#bb9a5e" opacity="0.16"/><rect x="0" y="26" width="2" height="2" fill="#bb9a5e" opacity="0.12"/><rect x="33" y="15" width="1" height="1" fill="#bb9a5e" opacity="0.24"/><rect x="23" y="16" width="1" height="1" fill="#bb9a5e" opacity="0.20"/><rect x="6" y="24" width="1" height="1" fill="#bb9a5e" opacity="0.13"/><rect x="19" y="22" width="2" height="2" fill="#bb9a5e" opacity="0.25"/><rect x="6" y="15" width="1" height="1" fill="#bb9a5e" opacity="0.22"/><rect x="6" y="2" width="2" height="2" fill="#bb9a5e" opacity="0.13"/><rect x="10" y="27" width="2" height="2" fill="#bb9a5e" opacity="0.15"/><rect x="33" y="37" width="2" height="2" fill="#bb9a5e" opacity="0.21"/><rect x="0" y="30" width="1" height="1" fill="#bb9a5e" opacity="0.15"/><rect x="41" y="3" width="2" height="2" fill="#bb9a5e" opacity="0.25"/><rect x="16" y="6" width="1" height="1" fill="#bb9a5e" opacity="0.15"/><rect x="19" y="29" width="1" height="1" fill="#bb9a5e" opacity="0.19"/><rect x="44" y="4" width="2" height="2" fill="#bb9a5e" opacity="0.24"/><rect x="18" y="17" width="1" height="1" fill="#bb9a5e" opacity="0.13"/><rect x="33" y="36" width="1" height="1" fill="#bb9a5e" opacity="0.22"/><rect x="46" y="20" width="1" height="1" fill="#bb9a5e" opacity="0.17"/><rect x="24" y="33" width="1" height="1" fill="#bb9a5e" opacity="0.25"/><rect x="13" y="29" width="2" height="2" fill="#bb9a5e" opacity="0.21"/><rect x="19" y="8" width="1" height="1" fill="#bb9a5e" opacity="0.26"/><rect x="2" y="20" width="2" height="2" fill="#bb9a5e" opacity="0.27"/><rect x="21" y="33" width="1" height="1" fill="#bb9a5e" opacity="0.22"/><rect x="29" y="14" width="1" height="1" fill="#bb9a5e" opacity="0.16"/><rect x="20" y="39" width="2" height="2" fill="#bb9a5e" opacity="0.21"/><rect x="20" y="41" width="2" height="2" fill="#bb9a5e" opacity="0.15"/><rect x="17" y="23" width="2" height="2" fill="#bb9a5e" opacity="0.22"/><rect x="19" y="31" width="2" height="2" fill="#bb9a5e" opacity="0.15"/><rect x="38" y="28" width="2" height="2" fill="#bb9a5e" opacity="0.14"/><rect x="9" y="28" width="1" height="1" fill="#f6ecce" opacity="0.45"/><rect x="38" y="16" width="1" height="1" fill="#f6ecce" opacity="0.35"/><rect x="36" y="35" width="1" height="1" fill="#f6ecce" opacity="0.31"/><rect x="21" y="28" width="1" height="1" fill="#f6ecce" opacity="0.33"/><rect x="9" y="17" width="1" height="1" fill="#f6ecce" opacity="0.25"/><rect x="0" y="4" width="1" height="1" fill="#f6ecce" opacity="0.40"/><rect x="43" y="21" width="1" height="1" fill="#f6ecce" opacity="0.33"/><rect x="26" y="33" width="1" height="1" fill="#f6ecce" opacity="0.39"/><rect x="16" y="36" width="1" height="1" fill="#f6ecce" opacity="0.24"/><rect x="15" y="32" width="1" height="1" fill="#f6ecce" opacity="0.39"/><rect x="47" y="12" width="1" height="1" fill="#f6ecce" opacity="0.42"/><rect x="16" y="18" width="1" height="1" fill="#f6ecce" opacity="0.34"/><rect x="36" y="22" width="1" height="1" fill="#f6ecce" opacity="0.32"/><rect x="20" y="10" width="1" height="1" fill="#f6ecce" opacity="0.40"/><rect x="36" y="5" width="1" height="1" fill="#f6ecce" opacity="0.35"/><rect x="6" y="47" width="1" height="1" fill="#f6ecce" opacity="0.41"/><rect x="45" y="28" width="1" height="1" fill="#f6ecce" opacity="0.42"/><rect x="29" y="26" width="1" height="1" fill="#f6ecce" opacity="0.38"/><rect x="1" y="7" width="1" height="1" fill="#f6ecce" opacity="0.43"/><rect x="44" y="29" width="1" height="1" fill="#f6ecce" opacity="0.34"/><rect x="45" y="47" width="1" height="1" fill="#f6ecce" opacity="0.32"/><rect x="23" y="3" width="1" height="1" fill="#f6ecce" opacity="0.45"/><rect x="8" y="11" width="1" height="1" fill="#f6ecce" opacity="0.43"/><rect x="0" y="35" width="1" height="1" fill="#f6ecce" opacity="0.40"/><rect x="6" y="37" width="1" height="1" fill="#f6ecce" opacity="0.23"/><rect x="47" y="22" width="1" height="1" fill="#f6ecce" opacity="0.37"/><rect x="33" y="23" width="1" height="1" fill="#f6ecce" opacity="0.37"/><rect x="17" y="10" width="1" height="1" fill="#f6ecce" opacity="0.35"/><rect x="5" y="2" width="1" height="1" fill="#f6ecce" opacity="0.25"/><rect x="43" y="16" width="1" height="1" fill="#f6ecce" opacity="0.40"/><rect x="41" y="21" width="1" height="1" fill="#f6ecce" opacity="0.38"/><rect x="6" y="25" width="1" height="1" fill="#f6ecce" opacity="0.42"/></svg>
