<svg xmlns="http://www.w3.org/2000/svg" width="48" height="48" viewBox="0 0 48 48" shape-rendering="crispEdges">
<rect width="48" height="48" fill="#d4a64e"/>
<rect x="3" y="25" width="1" height="1" fill="#a87f30" opacity="0.24"/><rect x="16" y="15" width="2" height="2" fill="#a87f30" opacity="0.36"/><rect x="18" y="34" width="2" height="2" fill="#a87f30" opacity="0.28"/><rect x="41" y="23" width="2" height="2" fill="#a87f30" opacity="0.37"/><rect x="33" y="19" width="1" height="1" fill="#a87f30" opacity="0.19"/><rect x="24" y="7" width="2" height="2" fill="#a87f30" opacity="0.26"/><rect x="27" y="0" width="1" height="1" fill="#a87f30" opacity="0.33"/><rect x="42" y="33" width="1" height="1" fill="#a87f30" opacity="0.39"/><rect x="32" y="13" width="1" height="1" fill="#a87f30" opacity="0.29"/><rect x="14" y="2" width="2" height="2" fill="#a87f30" opacity="0.20"/><rect x="16" y="9" width="1" height="1" fill="#a87f30" opacity="0.32"/><rect x="23" y="35" width="2" height="2" fill="#a87f30" opacity="0.21"/><rect x="23" y="43" width="1" height="1" fill="#a87f30" opacity="0.20"/><rect x="4" y="0" width="1" height="1" fill="#a87f30" opacity="0.37"/><rect x="7" y="20" width="1" height="1" fill="#a87f30" opacity="0.24"/><rect x="37" y="36" width="2" height="2" fill="#a87f30" opacity="0.27"/><rect x="27" y="13" width="1" height="1" fill="#a87f30" opacity="0.18"/><rect x="17" y="37" width="1" height="1" fill="#a87f30" opacity="0.19"/><rect x="2" y="24" width="2" height="2" fill="#a87f30" opacity="0.32"/><rect x="26" y="36" width="1" height="1" fill="#a87f30" opacity="0.37"/><rect x="22" y="9" width="1" height="1" fill="#a87f30" opacity="0.25"/><rect x="29" y="42" width="2" height="2" fill="#a87f30" opacity="0.37"/><rect x="38" y="41" width="1" height="1" fill="#a87f30" opacity="0.32"/><rect x="42" y="1" width="1" height="1" fill="#a87f30" opacity="0.31"/><rect x="41" y="45" width="1" height="1" fill="#a87f30" opacity="0.36"/><rect x="32" y="36" width="1" height="1" fill="#a87f30" opacity="0.34"/><rect x="40" y="46" width="1" height="1" fill="#a87f30" opacity="0.25"/><rect x="22" y="47" width="1" height="1" fill="#a87f30" opacity="0.24"/><rect x="23" y="19" width="2" height="2" fill="#a87f30" opacity="0.25"/><rect x="40" y="7" width="2" height="2" fill="#a87f30" opacity="0.40"/><rect x="23" y="13" width="1" height="1" fill="#a87f30" opacity="0.37"/><rect x="31" y="13" width="1" height="1" fill="#a87f30" opacity="0.36"/><rect x="36" y="26" width="2" height="2" fill="#a87f30" opacity="0.38"/><rect x="19" y="30" width="2" height="2" fill="#a87f30" opacity="0.37"/><rect x="38" y="26" width="2" height="2" fill="#a87f30" opacity="0.36"/><rect x="16" y="28" width="2" height="2" fill="#a87f30" opacity="0.40"/><rect x="25" y="46" width="2" height="2" fill="#a87f30" opacity="0.31"/><rect x="36" y="35" width="2" height="2" fill="#a87f30" opacity="0.36"/><rect x="11" y="40" width="1" height="1" fill="#a87f30" opacity="0.36"/><rect x="10" y="7" width="2" height="2" fill="#a87f30" opacity="0.27"/><rect x="7" y="3" width="2" height="2" fill="#a87f30" opacity="0.20"/><rect x="15" y="35" width="1" height="1" fill="#a87f30" opacity="0.31"/><rect x="5" y="34" width="2" height="2" fill="#a87f30" opacity="0.30"/><rect x="43" y="26" width="2" height="2" fill="#a87f30" opacity="0.39"/><rect x="19" y="1" width="2" height="2" fill="#a87f30" opacity="0.25"/><rect x="10" y="46" width="1" height="1" fill="#a87f30" opacity="0.31"/><rect x="32" y="34" width="1" height="1" fill="#a87f30" opacity="0.22"/><rect x="23" y="13" width="2" height="2" fill="#a87f30" opacity="0.23"/><rect x="35" y="5" width="2" height="2" fill="#a87f30" opacity="0.35"/><rect x="22" y="7" width="2" height="2" fill="#a87f30" opacity="0.26"/><rect x="37" y="16" width="2" height="2" fill="#a87f30" opacity="0.31"/><rect x="36" y="0" width="1" height="1" fill="#a87f30" opacity="0.32"/><rect x="7" y="36" width="2" height="2" fill="#a87f30" opacity="0.36"/><rect x="1" y="10" width="2" height="2" fill="#a87f30" opacity="0.40"/><rect x="10" y="34" width="1" height="1" fill="#a87f30" opacity="0.35"/><rect x="22" y="9" width="1" height="1" fill="#a87f30" opacity="0.28"/><rect x="23" y="5" width="1" height="1" fill="#a87f30" opacity="0.36"/><rect x="30" y="9" width="2" height="2" fill="#a87f30" opacity="0.24"/><rect x="32" y="39" width="1" height="1" fill="#a87f30" opacity="0.31"/><rect x="4" y="14" width="2" height="2" fill="#a87f30" opacity="0.36"/><rect x="47" y="36" width="2" height="2" fill="#a87f30" opacity="0.36"/><rect x="25" y="47" width="1" height="1" fill="#a87f30" opacity="0.39"/><rect x="15" y="9" width="1" height="1" fill="#a87f30" opacity="0.26"/><rect x="38" y="25" width="2" height="2" fill="#a87f30" opacity="0.36"/><rect x="10" y="28" width="2" height="2" fill="#a87f30" opacity="0.22"/><rect x="44" y="6" width="1" height="1" fill="#a87f30" opacity="0.19"/><rect x="20" y="19" width="2" height="2" fill="#a87f30" opacity="0.38"/><rect x="14" y="24" width="2" height="2" fill="#a87f30" opacity="0.22"/><rect x="5" y="23" width="1" height="1" fill="#a87f30" opacity="0.21"/><rect x="33" y="8" width="1" height="1" fill="#a87f30" opacity="0.27"/><rect x="6" y="39" width="1" height="1" fill="#e9cf85" opacity="0.53"/><rect x="19" y="39" width="1" height="1" fill="#e9cf85" opacity="0.50"/><rect x="28" y="28" width="1" height="1" fill="#e9cf85" opacity="0.33"/><rect x="22" y="31" width="1" height="1" fill="#e9cf85" opacity="0.35"/><rect x="44" y="8" width="1" height="1" fill="#e9cf85" opacity="0.37"/><rect x="38" y="30" width="1" height="1" fill="#e9cf85" opacity="0.32"/><rect x="39" y="13" width="1" height="1" fill="#e9cf85" opacity="0.26"/><rect x="31" y="1" width="1" height="1" fill="#e9cf85" opacity="0.36"/><rect x="17" y="25" width="1" height="1" fill="#e9cf85" opacity="0.40"/><rect x="14" y="18" width="1" height="1" fill="#e9cf85" opacity="0.26"/><rect x="6" y="30" width="1" height="1" fill="#e9cf85" opacity="0.29"/><rect x="4" y="16" width="1" height="1" fill="#e9cf85" opacity="0.29"/><rect x="6" y="10" width="1" height="1" fill="#e9cf85" opacity="0.53"/><rect x="21" y="23" width="1" height="1" fill="#e9cf85" opacity="0.47"/><rect x="44" y="11" width="1" height="1" fill="#e9cf85" opacity="0.28"/><rect x="29" y="26" width="1" height="1" fill="#e9cf85" opacity="0.46"/><rect x="10" y="9" width="1" height="1" fill="#e9cf85" opacity="0.31"/><rect x="5" y="21" width="1" height="1" fill="#e9cf85" opacity="0.50"/><rect x="10" y="10" width="1" height="1" fill="#e9cf85" opacity="0.52"/><rect x="9" y="43" width="1" height="1" fill="#e9cf85" opacity="0.43"/><rect x="13" y="23" width="1" height="1" fill="#e9cf85" opacity="0.50"/><rect x="47" y="14" width="1" height="1" fill="#e9cf85" opacity="0.32"/><rect x="0" y="39" width="1" height="1" fill="#e9cf85" opacity="0.53"/><rect x="30" y="45" width="1" height="1" fill="#e9cf85" opacity="0.49"/><rect x="2" y="4" width="1" height="1" fill="#e9cf85" opacity="0.31"/><rect x="42" y="27" width="1" height="1" fill="#e9cf85" opacity="0.28"/><rect x="23" y="15" width="1" height="1" fill="#e9cf85" opacity="0.36"/><rect x="40" y="20" width="1" height="1" fill="#e9cf85" opacity="0.44"/><rect x="29" y="38" width="1" height="1" fill="#e9cf85" opacity="0.48"/><rect x="46" y="6" width="1" height="1" fill="#e9cf85" opacity="0.26"/><rect x="32" y="19" width="1" height="1" fill="#e9cf85" opacity="0.34"/><rect x="6" y="9" width="1" height="1" fill="#e9cf85" opacity="0.29"/><rect x="8" y="38" width="1" height="1" fill="#e9cf85" opacity="0.46"/><rect x="33" y="14" width="1" height="1" fill="#e9cf85" opacity="0.52"/><rect x="30" y="12" width="1" height="1" fill="#e9cf85" opacity="0.30"/><rect x="46" y="26" width="1" height="1" fill="#e9cf85" opacity="0.30"/><rect x="12" y="38" width="1" height="1" fill="#e9cf85" opacity="0.26"/><rect x="8" y="6" width="1" height="1" fill="#e9cf85" opacity="0.34"/><rect x="35" y="0" width="1" height="1" fill="#e9cf85" opacity="0.45"/><rect x="32" y="15" width="1" height="1" fill="#e9cf85" opacity="0.30"/>
</svg>
