<svg xmlns="http://www.w3.org/2000/svg" width="100" height="100" viewBox="0 0 100 100" shape-rendering="crispEdges"><rect x="0"  y="24" width="14" height="52" fill="#d4a64e"/><rect x="0"  y="24" width="1"  height="52" fill="#6f5223"/><rect x="1"  y="24" width="1"  height="52" fill="#e6c074"/><rect x="86" y="24" width="14" height="52" fill="#d4a64e"/><rect x="99" y="24" width="1"  height="52" fill="#6f5223"/><rect x="98" y="24" width="1"  height="52" fill="#e6c074"/><rect x="0" y="0" width="100" height="1" fill="#4a3415"/><rect x="0" y="1" width="100" height="2" fill="#7a5824"/><rect x="0" y="3" width="100" height="4" fill="#b8893a"/><rect x="0" y="7" width="100" height="4" fill="#e6c074"/><rect x="0" y="11" width="100" height="2" fill="#f2d68f"/><rect x="0" y="13" width="100" height="4" fill="#d9b25e"/><rect x="0" y="17" width="100" height="4" fill="#a8782f"/><rect x="0" y="21" width="100" height="2" fill="#7a5824"/><rect x="0" y="23" width="100" height="1" fill="#4a3415"/><ellipse cx="7" cy="12" rx="6" ry="11" fill="#8a5f24"/><ellipse cx="7" cy="12" rx="3.4" ry="7" fill="#c79a44"/><ellipse cx="7" cy="12" rx="1.4" ry="3.4" fill="#5a3f18"/><ellipse cx="93" cy="12" rx="6" ry="11" fill="#8a5f24"/><ellipse cx="93" cy="12" rx="3.4" ry="7" fill="#c79a44"/><ellipse cx="93" cy="12" rx="1.4" ry="3.4" fill="#5a3f18"/><rect x="0" y="76" width="100" height="1" fill="#4a3415"/><rect x="0" y="77" width="100" height="2" fill="#7a5824"/><rect x="0" y="79" width="100" height="4" fill="#b8893a"/><rect x="0" y="83" width="100" height="4" fill="#e6c074"/><rect x="0" y="87" width="100" height="2" fill="#f2d68f"/><rect x="0" y="89" width="100" height="4" fill="#d9b25e"/><rect x="0" y="93" width="100" height="4" fill="#a8782f"/><rect x="0" y="97" width="100" height="2" fill="#7a5824"/><rect x="0" y="99" width="100" height="1" fill="#4a3415"/><ellipse cx="7" cy="88" rx="6" ry="11" fill="#8a5f24"/><ellipse cx="7" cy="88" rx="3.4" ry="7" fill="#c79a44"/><ellipse cx="7" cy="88" rx="1.4" ry="3.4" fill="#5a3f18"/><ellipse cx="93" cy="88" rx="6" ry="11" fill="#8a5f24"/><ellipse cx="93" cy="88" rx="3.4" ry="7" fill="#c79a44"/><ellipse cx="93" cy="88" rx="1.4" ry="3.4" fill="#5a3f18"/></svg>
