<svg xmlns="http://www.w3.org/2000/svg" width="96" height="64" viewBox="0 0 96 64" shape-rendering="crispEdges"><rect width="96" height="64" fill="#2f2c28"/><rect x="-31" y="1" width="30" height="14" fill="#746f66"/><rect x="-31" y="1" width="30" height="2" fill="#847e73" opacity="0.7"/><rect x="-31" y="13" width="30" height="2" fill="#45413a" opacity="0.8"/><rect x="-21" y="3" width="1" height="1" fill="#534e46" opacity="0.6"/><rect x="-4" y="6" width="1" height="1" fill="#534e46" opacity="0.6"/><rect x="-16" y="7" width="1" height="1" fill="#534e46" opacity="0.6"/><rect x="-16" y="8" width="1" height="1" fill="#534e46" opacity="0.6"/><rect x="-8" y="5" width="1" height="1" fill="#534e46" opacity="0.6"/><rect x="1" y="1" width="30" height="14" fill="#6b665d"/><rect x="1" y="1" width="30" height="2" fill="#847e73" opacity="0.7"/><rect x="1" y="13" width="30" height="2" fill="#45413a" opacity="0.8"/><rect x="28" y="6" width="1" height="1" fill="#7d776c" opacity="0.6"/><rect x="22" y="8" width="1" height="1" fill="#7d776c" opacity="0.6"/><rect x="13" y="10" width="1" height="1" fill="#534e46" opacity="0.6"/><rect x="7" y="3" width="1" height="1" fill="#534e46" opacity="0.6"/><rect x="20" y="11" width="1" height="1" fill="#534e46" opacity="0.6"/><rect x="33" y="1" width="30" height="14" fill="#6b665d"/><rect x="33" y="1" width="30" height="2" fill="#847e73" opacity="0.7"/><rect x="33" y="13" width="30" height="2" fill="#45413a" opacity="0.8"/><rect x="46" y="9" width="1" height="1" fill="#7d776c" opacity="0.6"/><rect x="60" y="7" width="1" height="1" fill="#7d776c" opacity="0.6"/><rect x="54" y="6" width="1" height="1" fill="#534e46" opacity="0.6"/><rect x="51" y="4" width="1" height="1" fill="#7d776c" opacity="0.6"/><rect x="37" y="12" width="1" height="1" fill="#7d776c" opacity="0.6"/><rect x="65" y="1" width="30" height="14" fill="#615c54"/><rect x="65" y="1" width="30" height="2" fill="#847e73" opacity="0.7"/><rect x="65" y="13" width="30" height="2" fill="#45413a" opacity="0.8"/><rect x="72" y="9" width="1" height="1" fill="#7d776c" opacity="0.6"/><rect x="78" y="11" width="1" height="1" fill="#7d776c" opacity="0.6"/><rect x="75" y="12" width="1" height="1" fill="#534e46" opacity="0.6"/><rect x="73" y="12" width="1" height="1" fill="#7d776c" opacity="0.6"/><rect x="82" y="11" width="1" height="1" fill="#534e46" opacity="0.6"/><rect x="97" y="1" width="30" height="14" fill="#615c54"/><rect x="97" y="1" width="30" height="2" fill="#847e73" opacity="0.7"/><rect x="97" y="13" width="30" height="2" fill="#45413a" opacity="0.8"/><rect x="103" y="7" width="1" height="1" fill="#7d776c" opacity="0.6"/><rect x="99" y="5" width="1" height="1" fill="#7d776c" opacity="0.6"/><rect x="115" y="8" width="1" height="1" fill="#7d776c" opacity="0.6"/><rect x="101" y="3" width="1" height="1" fill="#534e46" opacity="0.6"/><rect x="102" y="12" width="1" height="1" fill="#7d776c" opacity="0.6"/><rect x="-15" y="17" width="30" height="14" fill="#746f66"/><rect x="-15" y="17" width="30" height="2" fill="#847e73" opacity="0.7"/><rect x="-15" y="29" width="30" height="2" fill="#45413a" opacity="0.8"/><rect x="0" y="27" width="1" height="1" fill="#7d776c" opacity="0.6"/><rect x="-9" y="21" width="1" height="1" fill="#534e46" opacity="0.6"/><rect x="-7" y="28" width="1" height="1" fill="#7d776c" opacity="0.6"/><rect x="-2" y="27" width="1" height="1" fill="#7d776c" opacity="0.6"/><rect x="-12" y="27" width="1" height="1" fill="#534e46" opacity="0.6"/><rect x="17" y="17" width="30" height="14" fill="#615c54"/><rect x="17" y="17" width="30" height="2" fill="#847e73" opacity="0.7"/><rect x="17" y="29" width="30" height="2" fill="#45413a" opacity="0.8"/><rect x="42" y="28" width="1" height="1" fill="#534e46" opacity="0.6"/><rect x="32" y="25" width="1" height="1" fill="#534e46" opacity="0.6"/><rect x="35" y="20" width="1" height="1" fill="#534e46" opacity="0.6"/><rect x="37" y="25" width="1" height="1" fill="#534e46" opacity="0.6"/><rect x="29" y="19" width="1" height="1" fill="#534e46" opacity="0.6"/><rect x="49" y="17" width="30" height="14" fill="#6f6a61"/><rect x="49" y="17" width="30" height="2" fill="#847e73" opacity="0.7"/><rect x="49" y="29" width="30" height="2" fill="#45413a" opacity="0.8"/><rect x="58" y="24" width="1" height="1" fill="#7d776c" opacity="0.6"/><rect x="50" y="22" width="1" height="1" fill="#534e46" opacity="0.6"/><rect x="65" y="26" width="1" height="1" fill="#7d776c" opacity="0.6"/><rect x="71" y="26" width="1" height="1" fill="#7d776c" opacity="0.6"/><rect x="73" y="28" width="1" height="1" fill="#534e46" opacity="0.6"/><rect x="81" y="17" width="30" height="14" fill="#6f6a61"/><rect x="81" y="17" width="30" height="2" fill="#847e73" opacity="0.7"/><rect x="81" y="29" width="30" height="2" fill="#45413a" opacity="0.8"/><rect x="99" y="19" width="1" height="1" fill="#7d776c" opacity="0.6"/><rect x="101" y="24" width="1" height="1" fill="#7d776c" opacity="0.6"/><rect x="102" y="22" width="1" height="1" fill="#534e46" opacity="0.6"/><rect x="91" y="28" width="1" height="1" fill="#7d776c" opacity="0.6"/><rect x="87" y="22" width="1" height="1" fill="#7d776c" opacity="0.6"/><rect x="113" y="17" width="30" height="14" fill="#6f6a61"/><rect x="113" y="17" width="30" height="2" fill="#847e73" opacity="0.7"/><rect x="113" y="29" width="30" height="2" fill="#45413a" opacity="0.8"/><rect x="119" y="19" width="1" height="1" fill="#7d776c" opacity="0.6"/><rect x="139" y="22" width="1" height="1" fill="#7d776c" opacity="0.6"/><rect x="128" y="26" width="1" height="1" fill="#7d776c" opacity="0.6"/><rect x="124" y="25" width="1" height="1" fill="#534e46" opacity="0.6"/><rect x="124" y="20" width="1" height="1" fill="#7d776c" opacity="0.6"/><rect x="-31" y="33" width="30" height="14" fill="#615c54"/><rect x="-31" y="33" width="30" height="2" fill="#847e73" opacity="0.7"/><rect x="-31" y="45" width="30" height="2" fill="#45413a" opacity="0.8"/><rect x="-13" y="40" width="1" height="1" fill="#534e46" opacity="0.6"/><rect x="-29" y="44" width="1" height="1" fill="#534e46" opacity="0.6"/><rect x="-7" y="39" width="1" height="1" fill="#7d776c" opacity="0.6"/><rect x="-9" y="40" width="1" height="1" fill="#534e46" opacity="0.6"/><rect x="-17" y="37" width="1" height="1" fill="#7d776c" opacity="0.6"/><rect x="1" y="33" width="30" height="14" fill="#615c54"/><rect x="1" y="33" width="30" height="2" fill="#847e73" opacity="0.7"/><rect x="1" y="45" width="30" height="2" fill="#45413a" opacity="0.8"/><rect x="8" y="38" width="1" height="1" fill="#534e46" opacity="0.6"/><rect x="10" y="41" width="1" height="1" fill="#7d776c" opacity="0.6"/><rect x="24" y="44" width="1" height="1" fill="#534e46" opacity="0.6"/><rect x="4" y="37" width="1" height="1" fill="#7d776c" opacity="0.6"/><rect x="12" y="44" width="1" height="1" fill="#7d776c" opacity="0.6"/><rect x="33" y="33" width="30" height="14" fill="#6b665d"/><rect x="33" y="33" width="30" height="2" fill="#847e73" opacity="0.7"/><rect x="33" y="45" width="30" height="2" fill="#45413a" opacity="0.8"/><rect x="43" y="41" width="1" height="1" fill="#7d776c" opacity="0.6"/><rect x="48" y="38" width="1" height="1" fill="#7d776c" opacity="0.6"/><rect x="52" y="38" width="1" height="1" fill="#7d776c" opacity="0.6"/><rect x="42" y="43" width="1" height="1" fill="#534e46" opacity="0.6"/><rect x="35" y="44" width="1" height="1" fill="#7d776c" opacity="0.6"/><rect x="65" y="33" width="30" height="14" fill="#746f66"/><rect x="65" y="33" width="30" height="2" fill="#847e73" opacity="0.7"/><rect x="65" y="45" width="30" height="2" fill="#45413a" opacity="0.8"/><rect x="92" y="42" width="1" height="1" fill="#7d776c" opacity="0.6"/><rect x="78" y="40" width="1" height="1" fill="#534e46" opacity="0.6"/><rect x="74" y="36" width="1" height="1" fill="#534e46" opacity="0.6"/><rect x="76" y="42" width="1" height="1" fill="#7d776c" opacity="0.6"/><rect x="82" y="41" width="1" height="1" fill="#7d776c" opacity="0.6"/><rect x="97" y="33" width="30" height="14" fill="#6b665d"/><rect x="97" y="33" width="30" height="2" fill="#847e73" opacity="0.7"/><rect x="97" y="45" width="30" height="2" fill="#45413a" opacity="0.8"/><rect x="120" y="44" width="1" height="1" fill="#534e46" opacity="0.6"/><rect x="103" y="43" width="1" height="1" fill="#7d776c" opacity="0.6"/><rect x="103" y="43" width="1" height="1" fill="#534e46" opacity="0.6"/><rect x="121" y="40" width="1" height="1" fill="#534e46" opacity="0.6"/><rect x="103" y="35" width="1" height="1" fill="#7d776c" opacity="0.6"/><rect x="-15" y="49" width="30" height="14" fill="#6f6a61"/><rect x="-15" y="49" width="30" height="2" fill="#847e73" opacity="0.7"/><rect x="-15" y="61" width="30" height="2" fill="#45413a" opacity="0.8"/><rect x="9" y="51" width="1" height="1" fill="#534e46" opacity="0.6"/><rect x="-2" y="55" width="1" height="1" fill="#534e46" opacity="0.6"/><rect x="-2" y="53" width="1" height="1" fill="#534e46" opacity="0.6"/><rect x="7" y="56" width="1" height="1" fill="#7d776c" opacity="0.6"/><rect x="2" y="58" width="1" height="1" fill="#534e46" opacity="0.6"/><rect x="17" y="49" width="30" height="14" fill="#6f6a61"/><rect x="17" y="49" width="30" height="2" fill="#847e73" opacity="0.7"/><rect x="17" y="61" width="30" height="2" fill="#45413a" opacity="0.8"/><rect x="26" y="53" width="1" height="1" fill="#534e46" opacity="0.6"/><rect x="22" y="52" width="1" height="1" fill="#7d776c" opacity="0.6"/><rect x="27" y="54" width="1" height="1" fill="#7d776c" opacity="0.6"/><rect x="21" y="51" width="1" height="1" fill="#534e46" opacity="0.6"/><rect x="21" y="51" width="1" height="1" fill="#534e46" opacity="0.6"/><rect x="49" y="49" width="30" height="14" fill="#6f6a61"/><rect x="49" y="49" width="30" height="2" fill="#847e73" opacity="0.7"/><rect x="49" y="61" width="30" height="2" fill="#45413a" opacity="0.8"/><rect x="65" y="53" width="1" height="1" fill="#7d776c" opacity="0.6"/><rect x="53" y="60" width="1" height="1" fill="#534e46" opacity="0.6"/><rect x="59" y="55" width="1" height="1" fill="#7d776c" opacity="0.6"/><rect x="58" y="56" width="1" height="1" fill="#7d776c" opacity="0.6"/><rect x="56" y="53" width="1" height="1" fill="#534e46" opacity="0.6"/><rect x="81" y="49" width="30" height="14" fill="#6f6a61"/><rect x="81" y="49" width="30" height="2" fill="#847e73" opacity="0.7"/><rect x="81" y="61" width="30" height="2" fill="#45413a" opacity="0.8"/><rect x="89" y="57" width="1" height="1" fill="#534e46" opacity="0.6"/><rect x="107" y="55" width="1" height="1" fill="#7d776c" opacity="0.6"/><rect x="101" y="56" width="1" height="1" fill="#7d776c" opacity="0.6"/><rect x="98" y="58" width="1" height="1" fill="#534e46" opacity="0.6"/><rect x="104" y="55" width="1" height="1" fill="#534e46" opacity="0.6"/><rect x="113" y="49" width="30" height="14" fill="#615c54"/><rect x="113" y="49" width="30" height="2" fill="#847e73" opacity="0.7"/><rect x="113" y="61" width="30" height="2" fill="#45413a" opacity="0.8"/><rect x="135" y="53" width="1" height="1" fill="#534e46" opacity="0.6"/><rect x="130" y="53" width="1" height="1" fill="#7d776c" opacity="0.6"/><rect x="131" y="58" width="1" height="1" fill="#534e46" opacity="0.6"/><rect x="125" y="55" width="1" height="1" fill="#7d776c" opacity="0.6"/><rect x="135" y="59" width="1" height="1" fill="#7d776c" opacity="0.6"/></svg>
