<svg xmlns="http://www.w3.org/2000/svg" width="120" height="120" viewBox="0 0 120 120" shape-rendering="crispEdges"><defs><linearGradient id="gt" x1="0" y1="0" x2="0" y2="1"><stop offset="0" stop-color="#9a7c4a"/><stop offset="1" stop-color="#d8c79c"/></linearGradient><linearGradient id="gb" x1="0" y1="1" x2="0" y2="0"><stop offset="0" stop-color="#9a7c4a"/><stop offset="1" stop-color="#d8c79c"/></linearGradient><linearGradient id="gl" x1="0" y1="0" x2="1" y2="0"><stop offset="0" stop-color="#9a7c4a"/><stop offset="1" stop-color="#d8c79c"/></linearGradient><linearGradient id="gr" x1="1" y1="0" x2="0" y2="0"><stop offset="0" stop-color="#9a7c4a"/><stop offset="1" stop-color="#d8c79c"/></linearGradient><mask id="tear"><rect width="120" height="120" fill="white"/><rect fill="black" x="0" y="0" width="4" height="5"/><rect fill="black" x="11" y="0" width="3" height="6"/><rect fill="black" x="16" y="0" width="7" height="2"/><rect fill="black" x="40" y="0" width="6" height="9"/><rect fill="black" x="52" y="0" width="4" height="8"/><rect fill="black" x="60" y="0" width="5" height="7"/><rect fill="black" x="109" y="0" width="2" height="3"/><rect fill="black" x="0" y="112" width="2" height="9"/><rect fill="black" x="4" y="112" width="7" height="8"/><rect fill="black" x="19" y="112" width="2" height="5"/><rect fill="black" x="32" y="112" width="2" height="4"/><rect fill="black" x="50" y="112" width="4" height="4"/><rect fill="black" x="60" y="112" width="4" height="3"/><rect fill="black" x="72" y="112" width="2" height="9"/><rect fill="black" x="79" y="112" width="7" height="4"/><rect fill="black" x="101" y="112" width="7" height="5"/><rect fill="black" x="119" y="112" width="4" height="4"/><rect fill="black" x="0" y="12" width="6" height="7"/><rect fill="black" x="0" y="26" width="6" height="6"/><rect fill="black" x="0" y="45" width="8" height="7"/><rect fill="black" x="0" y="54" width="8" height="4"/><rect fill="black" x="0" y="62" width="3" height="6"/><rect fill="black" x="0" y="97" width="7" height="7"/><rect fill="black" x="0" y="107" width="3" height="4"/><rect fill="black" x="0" y="118" width="6" height="2"/><rect fill="black" x="112" y="0" width="3" height="5"/><rect fill="black" x="112" y="9" width="5" height="2"/><rect fill="black" x="112" y="17" width="4" height="6"/><rect fill="black" x="112" y="31" width="5" height="3"/><rect fill="black" x="112" y="42" width="7" height="3"/><rect fill="black" x="112" y="53" width="3" height="7"/><rect fill="black" x="112" y="66" width="5" height="4"/><rect fill="black" x="112" y="72" width="3" height="2"/><rect fill="black" x="112" y="93" width="3" height="5"/><rect fill="black" x="112" y="103" width="4" height="3"/></mask></defs><g mask="url(#tear)"><rect x="0" y="0" width="120" height="16" fill="url(#gt)"/><rect x="0" y="104" width="120" height="16" fill="url(#gb)"/><rect x="0" y="0" width="16" height="120" fill="url(#gl)"/><rect x="104" y="0" width="16" height="120" fill="url(#gr)"/></g></svg>
