<svg xmlns="http://www.w3.org/2000/svg" width="240" height="240" viewBox="0 0 240 240" preserveAspectRatio="none" shape-rendering="crispEdges"><defs><linearGradient id="gt" x1="0" y1="0" x2="0" y2="1"><stop offset="0" stop-color="#4a3216"/><stop offset="0.3" stop-color="#7a5728"/><stop offset="0.62" stop-color="#b08c4c"/><stop offset="1" stop-color="#e8cd8e"/></linearGradient><linearGradient id="gb" x1="0" y1="1" x2="0" y2="0"><stop offset="0" stop-color="#4a3216"/><stop offset="0.3" stop-color="#7a5728"/><stop offset="0.62" stop-color="#b08c4c"/><stop offset="1" stop-color="#e8cd8e"/></linearGradient><linearGradient id="gl" x1="0" y1="0" x2="1" y2="0"><stop offset="0" stop-color="#4a3216"/><stop offset="0.3" stop-color="#7a5728"/><stop offset="0.62" stop-color="#b08c4c"/><stop offset="1" stop-color="#e8cd8e"/></linearGradient><linearGradient id="gr" x1="1" y1="0" x2="0" y2="0"><stop offset="0" stop-color="#4a3216"/><stop offset="0.3" stop-color="#7a5728"/><stop offset="0.62" stop-color="#b08c4c"/><stop offset="1" stop-color="#e8cd8e"/></linearGradient><linearGradient id="ctl" x1="0" y1="0" x2="1" y2="1"><stop offset="0" stop-color="#4a3216"/><stop offset="0.3" stop-color="#7a5728"/><stop offset="0.62" stop-color="#b08c4c"/><stop offset="1" stop-color="#e8cd8e"/></linearGradient><linearGradient id="ctr" x1="1" y1="0" x2="0" y2="1"><stop offset="0" stop-color="#4a3216"/><stop offset="0.3" stop-color="#7a5728"/><stop offset="0.62" stop-color="#b08c4c"/><stop offset="1" stop-color="#e8cd8e"/></linearGradient><linearGradient id="cbl" x1="0" y1="1" x2="1" y2="0"><stop offset="0" stop-color="#4a3216"/><stop offset="0.3" stop-color="#7a5728"/><stop offset="0.62" stop-color="#b08c4c"/><stop offset="1" stop-color="#e8cd8e"/></linearGradient><linearGradient id="cbr" x1="1" y1="1" x2="0" y2="0"><stop offset="0" stop-color="#4a3216"/><stop offset="0.3" stop-color="#7a5728"/><stop offset="0.62" stop-color="#b08c4c"/><stop offset="1" stop-color="#e8cd8e"/></linearGradient><mask id="tear"><rect width="240" height="240" fill="white"/><rect fill="black" x="4" y="0" width="4" height="1"/><rect fill="black" x="23" y="0" width="3" height="3"/><rect fill="black" x="108" y="0" width="3" height="1"/><rect fill="black" x="174" y="0" width="5" height="3"/><rect fill="black" x="194" y="0" width="6" height="2"/><rect fill="black" x="213" y="0" width="6" height="2"/><rect fill="black" x="231" y="0" width="3" height="3"/><rect fill="black" x="33" y="236" width="2" height="4"/><rect fill="black" x="60" y="237" width="3" height="3"/><rect fill="black" x="93" y="236" width="6" height="4"/><rect fill="black" x="124" y="236" width="3" height="4"/><rect fill="black" x="139" y="237" width="2" height="3"/><rect fill="black" x="166" y="236" width="6" height="4"/><rect fill="black" x="229" y="237" width="4" height="3"/><rect fill="black" x="0" y="4" width="4" height="3"/><rect fill="black" x="0" y="38" width="4" height="3"/><rect fill="black" x="0" y="232" width="4" height="3"/><rect fill="black" x="238" y="4" width="2" height="6"/><rect fill="black" x="238" y="28" width="2" height="5"/><rect fill="black" x="237" y="50" width="3" height="5"/></mask></defs><g mask="url(#tear)"><rect x="0" y="0" width="240" height="28" fill="url(#gt)"/><rect x="0" y="212" width="240" height="28" fill="url(#gb)"/><rect x="0" y="0" width="28" height="240" fill="url(#gl)"/><rect x="212" y="0" width="28" height="240" fill="url(#gr)"/><rect x="0" y="0" width="28" height="28" fill="url(#ctl)"/><rect x="212" y="0" width="28" height="28" fill="url(#ctr)"/><rect x="0" y="212" width="28" height="28" fill="url(#cbl)"/><rect x="212" y="212" width="28" height="28" fill="url(#cbr)"/></g></svg>
