<svg xmlns="http://www.w3.org/2000/svg" width="120" height="120" viewBox="0 0 120 120" shape-rendering="crispEdges"><defs><linearGradient id="gt" x1="0" y1="0" x2="0" y2="1"><stop offset="0" stop-color="#7a5a30"/><stop offset="0.6" stop-color="#b9965a"/><stop offset="1" stop-color="#d7c188"/></linearGradient><linearGradient id="gb" x1="0" y1="1" x2="0" y2="0"><stop offset="0" stop-color="#7a5a30"/><stop offset="0.6" stop-color="#b9965a"/><stop offset="1" stop-color="#d7c188"/></linearGradient><linearGradient id="gl" x1="0" y1="0" x2="1" y2="0"><stop offset="0" stop-color="#7a5a30"/><stop offset="0.6" stop-color="#b9965a"/><stop offset="1" stop-color="#d7c188"/></linearGradient><linearGradient id="gr" x1="1" y1="0" x2="0" y2="0"><stop offset="0" stop-color="#7a5a30"/><stop offset="0.6" stop-color="#b9965a"/><stop offset="1" stop-color="#d7c188"/></linearGradient><mask id="tear"><rect width="120" height="120" fill="white"/><rect fill="black" x="0" y="0" width="4" height="7"/><rect fill="black" x="10" y="0" width="3" height="8"/><rect fill="black" x="15" y="0" width="8" height="3"/><rect fill="black" x="39" y="0" width="7" height="12"/><rect fill="black" x="52" y="0" width="4" height="10"/><rect fill="black" x="60" y="0" width="5" height="9"/><rect fill="black" x="70" y="0" width="8" height="6"/><rect fill="black" x="85" y="0" width="6" height="9"/><rect fill="black" x="109" y="0" width="2" height="4"/><rect fill="black" x="0" y="110" width="2" height="12"/><rect fill="black" x="4" y="110" width="8" height="11"/><rect fill="black" x="19" y="110" width="3" height="7"/><rect fill="black" x="33" y="110" width="2" height="6"/><rect fill="black" x="37" y="110" width="6" height="8"/><rect fill="black" x="50" y="110" width="5" height="5"/><rect fill="black" x="60" y="110" width="4" height="4"/><rect fill="black" x="73" y="110" width="2" height="12"/><rect fill="black" x="79" y="110" width="7" height="5"/><rect fill="black" x="102" y="110" width="7" height="7"/><rect fill="black" x="0" y="0" width="6" height="5"/><rect fill="black" x="0" y="21" width="8" height="8"/><rect fill="black" x="0" y="35" width="8" height="7"/><rect fill="black" x="0" y="54" width="10" height="8"/><rect fill="black" x="0" y="64" width="11" height="5"/><rect fill="black" x="0" y="72" width="5" height="6"/><rect fill="black" x="0" y="85" width="5" height="6"/><rect fill="black" x="0" y="105" width="9" height="8"/><rect fill="black" x="0" y="115" width="5" height="5"/><rect fill="black" x="110" y="0" width="9" height="2"/><rect fill="black" x="110" y="7" width="4" height="5"/><rect fill="black" x="110" y="16" width="6" height="2"/><rect fill="black" x="110" y="23" width="6" height="7"/><rect fill="black" x="110" y="38" width="7" height="3"/><rect fill="black" x="110" y="48" width="9" height="3"/><rect fill="black" x="110" y="58" width="4" height="8"/><rect fill="black" x="110" y="72" width="7" height="5"/><rect fill="black" x="110" y="79" width="5" height="2"/><rect fill="black" x="110" y="86" width="3" height="2"/><rect fill="black" x="110" y="100" width="4" height="6"/><rect fill="black" x="110" y="110" width="6" height="3"/></mask></defs><g mask="url(#tear)"><rect x="0" y="0" width="120" height="18" fill="url(#gt)"/><rect x="0" y="102" width="120" height="18" fill="url(#gb)"/><rect x="0" y="0" width="18" height="120" fill="url(#gl)"/><rect x="102" y="0" width="18" height="120" fill="url(#gr)"/></g></svg>
