<svg xmlns="http://www.w3.org/2000/svg" width="240" height="240" viewBox="0 0 240 240" preserveAspectRatio="none" shape-rendering="crispEdges"><defs><linearGradient id="gt" x1="0" y1="0" x2="0" y2="1"><stop offset="0" stop-color="#7a5a30"/><stop offset="0.6" stop-color="#b9965a"/><stop offset="1" stop-color="#d7c188"/></linearGradient><linearGradient id="gb" x1="0" y1="1" x2="0" y2="0"><stop offset="0" stop-color="#7a5a30"/><stop offset="0.6" stop-color="#b9965a"/><stop offset="1" stop-color="#d7c188"/></linearGradient><linearGradient id="gl" x1="0" y1="0" x2="1" y2="0"><stop offset="0" stop-color="#7a5a30"/><stop offset="0.6" stop-color="#b9965a"/><stop offset="1" stop-color="#d7c188"/></linearGradient><linearGradient id="gr" x1="1" y1="0" x2="0" y2="0"><stop offset="0" stop-color="#7a5a30"/><stop offset="0.6" stop-color="#b9965a"/><stop offset="1" stop-color="#d7c188"/></linearGradient><mask id="tear"><rect width="240" height="240" fill="white"/><rect fill="black" x="4" y="0" width="4" height="2"/><rect fill="black" x="21" y="0" width="3" height="7"/><rect fill="black" x="98" y="0" width="3" height="2"/><rect fill="black" x="158" y="0" width="5" height="7"/><rect fill="black" x="176" y="0" width="6" height="4"/><rect fill="black" x="193" y="0" width="6" height="3"/><rect fill="black" x="209" y="0" width="3" height="6"/><rect fill="black" x="31" y="232" width="2" height="7"/><rect fill="black" x="54" y="232" width="3" height="6"/><rect fill="black" x="85" y="232" width="6" height="7"/><rect fill="black" x="114" y="232" width="3" height="8"/><rect fill="black" x="127" y="232" width="2" height="5"/><rect fill="black" x="152" y="232" width="6" height="7"/><rect fill="black" x="211" y="232" width="4" height="6"/><rect fill="black" x="230" y="232" width="3" height="8"/><rect fill="black" x="0" y="4" width="8" height="3"/><rect fill="black" x="0" y="182" width="8" height="3"/><rect fill="black" x="0" y="212" width="5" height="6"/><rect fill="black" x="0" y="234" width="4" height="5"/><rect fill="black" x="232" y="4" width="6" height="5"/><rect fill="black" x="232" y="202" width="4" height="6"/><rect fill="black" x="232" y="235" width="4" height="4"/></mask></defs><g mask="url(#tear)"><rect x="0" y="0" width="240" height="18" fill="url(#gt)"/><rect x="0" y="222" width="240" height="18" fill="url(#gb)"/><rect x="0" y="0" width="18" height="240" fill="url(#gl)"/><rect x="222" y="0" width="18" height="240" fill="url(#gr)"/></g></svg>
