<svg xmlns="http://www.w3.org/2000/svg" viewBox="0 0 512 512" role="img" aria-label="PIXELROYALE">
  <rect width="512" height="512" rx="72" fill="#0b0c10"/>
  <rect x="38" y="38" width="436" height="436" rx="42" fill="#1f2833" stroke="#45f3ff" stroke-width="18"/>
  <rect x="76" y="76" width="360" height="360" rx="22" fill="#111827" stroke="#66fcf1" stroke-width="6" opacity=".82"/>
  <g fill="#45f3ff" opacity=".24">
    <rect x="108" y="110" width="22" height="22"/>
    <rect x="154" y="110" width="22" height="22"/>
    <rect x="200" y="110" width="22" height="22"/>
    <rect x="246" y="110" width="22" height="22"/>
    <rect x="292" y="110" width="22" height="22"/>
    <rect x="338" y="110" width="22" height="22"/>
    <rect x="108" y="366" width="22" height="22"/>
    <rect x="154" y="366" width="22" height="22"/>
    <rect x="200" y="366" width="22" height="22"/>
    <rect x="246" y="366" width="22" height="22"/>
    <rect x="292" y="366" width="22" height="22"/>
    <rect x="338" y="366" width="22" height="22"/>
  </g>
  <circle cx="256" cy="256" r="78" fill="#ffe600" stroke="#ff4444" stroke-width="18"/>
  <circle cx="256" cy="256" r="40" fill="#45f3ff" stroke="#111827" stroke-width="10"/>
  <path d="M257 256h93" stroke="#0b0c10" stroke-width="18" stroke-linecap="square"/>
  <path d="M302 209l88-88 34 34-88 88" fill="none" stroke="#f8fafc" stroke-width="26" stroke-linecap="square" stroke-linejoin="miter"/>
  <path d="M283 272l-63 63" stroke="#a855f7" stroke-width="18" stroke-linecap="square"/>
  <text x="256" y="450" fill="#f8fafc" font-family="monospace" font-size="56" font-weight="800" text-anchor="middle">PR</text>
</svg>
